<?xml version="1.0" standalone="no"?>
<!DOCTYPE svg PUBLIC "-//W3C//DTD SVG 20010904//EN"
 "http://www.w3.org/TR/2001/REC-SVG-20010904/DTD/svg10.dtd">
<svg version="1.0" xmlns="http://www.w3.org/2000/svg"
 width="512.000000pt" height="512.000000pt" viewBox="0 0 512.000000 512.000000"
 preserveAspectRatio="xMidYMid meet">

<g transform="translate(0.000000,512.000000) scale(0.100000,-0.100000)"
fill="#000000" stroke="none">
<path d="M1139 5106 c-106 -28 -209 -121 -251 -224 l-23 -57 -3 -826 -3 -826
-83 -5 c-151 -10 -271 -90 -333 -223 l-28 -60 0 -1300 0 -1300 28 -60 c37 -79
114 -156 191 -192 l61 -28 1865 0 1865 0 65 31 c82 39 144 101 184 184 l31 65
0 1075 0 1075 -28 61 c-36 77 -113 154 -192 191 l-60 28 -960 5 -960 5 -47 28
c-38 22 -65 54 -140 164 -106 156 -157 202 -257 233 -59 19 -93 20 -557 20
l-494 0 2 818 3 817 22 42 c27 51 82 96 132 112 28 8 407 11 1397 11 1346 0
1359 -1 1404 -21 56 -25 86 -53 113 -104 l22 -40 3 -922 2 -922 27 -20 c32
-26 64 -27 94 -2 l24 19 0 934 0 933 -23 57 c-33 81 -108 160 -190 200 l-67
33 -1395 2 c-1084 1 -1405 -1 -1441 -11z m912 -2114 c48 -25 64 -42 149 -167
101 -148 154 -199 240 -232 41 -17 121 -18 1007 -23 l961 -5 43 -30 c24 -17
57 -50 74 -74 l30 -43 3 -1031 c2 -797 0 -1042 -10 -1077 -15 -58 -87 -131
-144 -148 -55 -16 -3629 -18 -3687 -1 -53 14 -132 93 -146 144 -15 56 -15
2504 0 2559 14 50 83 123 134 141 33 12 153 14 666 15 l627 0 53 -28z"/>
<path d="M2425 2310 c-149 -23 -327 -98 -445 -188 -119 -90 -260 -263 -260
-319 0 -29 42 -73 69 -73 36 0 52 12 90 69 134 195 310 312 539 357 162 31
340 6 495 -70 167 -81 292 -207 373 -373 196 -401 30 -882 -373 -1079 -400
-197 -883 -30 -1079 373 -61 123 -85 241 -82 391 3 109 2 115 -21 133 -31 26
-64 24 -98 -5 l-28 -24 1 -144 c0 -157 13 -226 65 -357 89 -224 288 -428 510
-522 284 -121 602 -100 871 58 112 65 266 219 329 328 101 174 133 294 133
495 0 160 -12 227 -65 359 -70 177 -224 358 -388 459 -186 114 -426 164 -636
132z"/>
<path d="M2414 2006 c-17 -8 -42 -29 -55 -47 -22 -32 -24 -44 -28 -206 l-3
-173 -170 0 c-158 0 -172 -2 -200 -21 -46 -33 -58 -74 -58 -199 0 -127 12
-166 61 -201 32 -23 44 -24 200 -27 l167 -4 4 -167 c3 -156 5 -169 27 -200 35
-49 74 -61 201 -61 127 0 166 12 201 61 22 31 24 44 27 200 l4 167 167 4 c156
3 168 4 200 27 49 35 61 74 61 201 0 125 -12 166 -58 199 -28 19 -42 21 -200
21 l-170 0 -3 173 c-4 162 -6 174 -28 206 -13 18 -39 40 -57 47 -45 19 -247
18 -290 0z m217 -298 c0 -180 9 -220 52 -252 26 -19 44 -21 208 -24 l179 -4 0
-74 0 -74 -184 0 c-170 0 -185 -2 -209 -20 -38 -30 -47 -77 -47 -252 l0 -158
-70 0 -70 0 0 158 c0 175 -9 222 -47 252 -24 18 -39 20 -209 20 l-184 0 0 74
0 74 179 4 c257 4 260 7 260 276 l1 162 70 0 70 0 1 -162z"/>
<path d="M1550 4651 c-19 -10 -48 -35 -65 -55 l-30 -38 0 -153 0 -153 30 -38
c17 -20 46 -45 65 -55 33 -18 79 -19 1010 -19 931 0 977 1 1010 19 19 10 48
35 65 55 l30 38 0 153 0 153 -30 38 c-17 20 -46 45 -65 55 -33 18 -79 19
-1010 19 -931 0 -977 -1 -1010 -19z m1965 -246 l0 -110 -955 0 -955 0 -3 99
c-1 55 0 106 2 113 5 11 174 13 958 11 l953 -3 0 -110z"/>
<path d="M1475 3815 c-14 -13 -25 -36 -25 -50 0 -14 11 -37 25 -50 l24 -25
1061 0 1061 0 24 25 c32 31 32 69 0 100 l-24 25 -1061 0 -1061 0 -24 -25z"/>
<path d="M1475 3515 c-14 -13 -25 -36 -25 -50 0 -14 11 -37 25 -50 l24 -25
1061 0 1061 0 24 25 c32 31 32 69 0 100 l-24 25 -1061 0 -1061 0 -24 -25z"/>
</g>
</svg>
