<?xml version="1.0" standalone="no"?>
<!DOCTYPE svg PUBLIC "-//W3C//DTD SVG 20010904//EN"
 "http://www.w3.org/TR/2001/REC-SVG-20010904/DTD/svg10.dtd">
<svg version="1.0" xmlns="http://www.w3.org/2000/svg"
 width="512.000000pt" height="512.000000pt" viewBox="0 0 512.000000 512.000000"
 preserveAspectRatio="xMidYMid meet">

<g transform="translate(0.000000,512.000000) scale(0.100000,-0.100000)"
fill="#000000" stroke="none">
<path d="M207 4836 c-90 -32 -159 -104 -191 -199 -14 -43 -16 -196 -16 -1636
0 -1768 -5 -1645 70 -1740 28 -35 58 -59 107 -83 l68 -33 400 -3 c396 -3 401
-3 428 18 21 17 27 30 27 60 0 66 11 64 -434 70 -396 5 -401 5 -438 28 -49 30
-78 92 -78 165 l0 57 2410 0 2410 0 0 -57 c0 -73 -29 -135 -78 -165 l-37 -23
-1757 -3 -1757 -2 -20 -26 c-24 -30 -26 -43 -10 -77 19 -43 45 -47 300 -47
224 0 240 -1 235 -17 -3 -10 -19 -104 -37 -209 l-32 -191 -98 -6 c-113 -7
-156 -24 -211 -85 -96 -106 -59 -275 73 -343 37 -18 70 -19 1019 -19 955 0
982 1 1019 20 131 67 168 237 73 342 -55 61 -98 78 -211 85 l-98 6 -32 191
c-18 105 -34 199 -37 208 -5 16 44 18 798 20 l803 3 68 33 c49 24 79 48 107
84 75 94 71 -30 68 1758 l-3 1605 -25 50 c-29 59 -84 116 -142 147 l-43 23
-547 3 c-539 3 -548 2 -568 -18 -20 -20 -26 -54 -14 -84 15 -39 33 -41 576
-46 l527 -5 32 -30 c63 -60 59 41 59 -1535 l0 -1440 -2410 0 -2410 0 0 1440
c0 1576 -4 1475 59 1535 l32 30 1641 5 1640 5 24 28 c29 34 30 56 3 91 l-20
26 -1642 0 c-1356 -1 -1649 -3 -1680 -14z m2913 -3699 c0 -1 16 -92 35 -202
19 -110 35 -203 35 -206 0 -4 -52 -8 -115 -10 -102 -4 -117 -7 -136 -26 -27
-27 -29 -75 -5 -102 17 -19 35 -20 298 -23 l280 -3 24 -28 c29 -34 30 -56 3
-91 l-20 -26 -959 0 -959 0 -20 26 c-27 35 -26 57 3 91 l24 28 534 3 c528 2
533 2 551 23 22 28 22 71 -2 100 l-19 24 -371 3 c-204 2 -371 6 -371 10 0 4
16 97 35 207 19 110 35 201 35 202 0 2 252 3 560 3 308 0 560 -1 560 -3z"/>
<path d="M474 4297 c-35 -31 -38 -82 -5 -109 22 -17 63 -18 902 -18 866 0 879
0 899 20 27 27 26 81 -1 106 -20 18 -52 19 -894 22 l-874 2 -27 -23z"/>
<path d="M4166 4299 l-26 -20 0 -529 0 -529 22 -21 c21 -19 34 -20 243 -20
209 0 222 1 243 20 l22 21 0 529 0 529 -26 20 c-25 20 -39 21 -239 21 -200 0
-214 -1 -239 -21z m354 -549 l0 -420 -115 0 -115 0 0 420 0 420 115 0 115 0 0
-420z"/>
<path d="M2735 4095 l-25 -24 0 -425 0 -425 26 -20 c25 -20 39 -21 244 -21
200 0 220 2 241 19 l24 19 0 432 0 432 -24 19 c-21 17 -41 19 -243 19 l-219 0
-24 -25z m365 -445 l0 -320 -120 0 -120 0 0 320 0 320 120 0 120 0 0 -320z"/>
<path d="M483 3908 c-46 -23 -49 -103 -4 -127 13 -8 201 -11 571 -11 l551 0
26 26 c20 20 24 31 19 57 -13 65 18 62 -589 64 -377 1 -559 -1 -574 -9z"/>
<path d="M1882 3910 c-22 -9 -42 -46 -42 -76 0 -8 11 -26 25 -39 24 -25 26
-25 205 -25 167 0 181 1 200 20 30 30 27 83 -6 109 -25 19 -39 21 -193 20 -91
0 -176 -4 -189 -9z"/>
<path d="M3444 3879 c-18 -20 -19 -42 -22 -308 -3 -309 -1 -342 29 -372 18
-18 34 -19 242 -19 221 0 224 0 245 23 22 23 22 29 22 340 0 304 -1 318 -20
337 -19 19 -33 20 -248 20 -220 0 -230 -1 -248 -21z m366 -339 l0 -210 -120 0
-120 0 0 210 0 210 120 0 120 0 0 -210z"/>
<path d="M483 3458 c-46 -22 -49 -103 -4 -127 13 -8 297 -11 895 -11 863 0
876 0 896 20 30 30 27 83 -6 109 -27 21 -31 21 -893 20 -589 0 -873 -4 -888
-11z"/>
<path d="M482 3063 c-7 -3 -19 -18 -28 -35 -13 -25 -13 -35 -3 -59 6 -17 20
-34 30 -39 10 -6 97 -10 194 -10 173 0 176 0 200 25 14 13 25 36 25 50 0 14
-11 37 -25 50 -24 25 -26 25 -202 24 -98 0 -184 -3 -191 -6z"/>
<path d="M1115 3045 c-14 -13 -25 -36 -25 -50 0 -14 11 -37 25 -50 l24 -25
549 0 c541 0 550 0 576 21 34 27 36 77 3 107 l-23 22 -553 0 -552 0 -24 -25z"/>
<path d="M4023 2948 c-16 -7 -77 -118 -198 -357 -97 -190 -180 -350 -184 -354
-5 -5 -75 122 -157 283 -86 170 -158 300 -172 311 -59 46 -86 20 -186 -177
l-81 -159 -148 -5 c-141 -5 -150 -6 -168 -29 -27 -34 -24 -75 7 -100 25 -19
40 -21 199 -21 154 0 175 2 196 19 13 10 49 69 79 130 30 61 57 111 60 111 3
0 75 -136 160 -303 217 -423 198 -423 410 -7 80 157 161 316 181 354 l36 69
87 -169 c48 -93 97 -177 108 -186 18 -16 43 -18 197 -18 165 0 179 1 199 20
32 30 30 82 -4 109 -24 19 -40 21 -165 21 l-138 0 -106 210 c-59 115 -114 219
-123 230 -21 24 -60 32 -89 18z"/>
<path d="M495 2671 c-52 -22 -66 -90 -26 -123 22 -17 63 -18 902 -18 866 0
879 0 899 20 27 27 26 81 -1 106 -20 18 -51 19 -888 21 -476 1 -875 -2 -886
-6z"/>
<path d="M482 2273 c-7 -3 -19 -18 -28 -35 -13 -25 -13 -35 -3 -59 6 -17 20
-34 30 -39 10 -6 188 -10 437 -10 409 0 420 1 446 21 34 27 36 77 3 107 -23
22 -25 22 -448 21 -233 0 -430 -3 -437 -6z"/>
</g>
</svg>
