<?xml version="1.0" standalone="no"?>
<!DOCTYPE svg PUBLIC "-//W3C//DTD SVG 20010904//EN"
 "http://www.w3.org/TR/2001/REC-SVG-20010904/DTD/svg10.dtd">
<svg version="1.0" xmlns="http://www.w3.org/2000/svg"
 width="512.000000pt" height="512.000000pt" viewBox="0 0 512.000000 512.000000"
 preserveAspectRatio="xMidYMid meet">

<g transform="translate(0.000000,512.000000) scale(0.100000,-0.100000)"
fill="#000000" stroke="none">
<path d="M1766 5110 c-416 -66 -754 -363 -870 -764 -37 -127 -51 -275 -36
-398 52 -452 353 -804 790 -926 86 -24 111 -27 270 -27 198 0 273 15 430 84
484 212 741 761 594 1267 -105 363 -396 646 -759 740 -112 28 -315 40 -419 24z
m363 -231 c311 -78 563 -342 626 -658 23 -111 16 -294 -14 -399 -82 -282 -301
-502 -586 -588 -80 -24 -106 -27 -235 -27 -129 0 -155 3 -235 27 -232 70 -419
226 -525 437 -58 115 -81 204 -87 345 -11 248 64 449 236 627 213 222 522 311
820 236z"/>
<path d="M793 2545 c-201 -36 -365 -124 -513 -274 -129 -130 -211 -275 -257
-457 -16 -62 -18 -125 -18 -591 l0 -523 28 -27 27 -28 673 -3 c608 -3 675 -1
703 13 58 31 73 112 30 162 l-24 28 -614 5 -613 5 0 425 c0 367 3 434 18 492
69 275 279 485 555 556 61 16 155 17 1132 17 1010 0 1069 -1 1135 -19 132 -35
241 -95 335 -183 58 -54 87 -65 135 -52 43 12 75 58 75 109 0 30 -10 44 -70
102 -129 124 -303 211 -487 243 -118 21 -2136 21 -2250 0z"/>
<path d="M3704 1703 c-12 -2 -31 -14 -43 -27 -12 -12 -143 -308 -292 -657
-149 -349 -275 -638 -279 -643 -5 -5 -84 142 -177 325 -153 304 -171 336 -203
351 -31 16 -71 18 -363 18 -361 0 -383 -3 -411 -59 -20 -38 -20 -64 0 -102 28
-55 53 -59 374 -59 l290 0 204 -408 c184 -366 208 -410 239 -426 42 -23 95
-16 124 17 12 12 141 303 288 647 147 344 272 634 278 645 8 16 54 -70 286
-530 256 -510 279 -551 311 -567 31 -16 71 -18 363 -18 261 0 335 3 362 14 35
15 65 59 65 96 0 37 -30 81 -65 96 -27 11 -96 14 -325 14 l-290 0 -310 620
c-201 401 -318 625 -333 634 -26 18 -64 25 -93 19z"/>
</g>
</svg>
